<?xml version="1.0" encoding="UTF-8" standalone="no"?>
<svg
   sodipodi:docname="card.svg"
   inkscape:version="1.3.2 (091e20ef0f, 2023-11-25)"
   id="svg10448"
   version="1.1"
   viewBox="0 0 158.75 105.83334"
   height="400.00003"
   width="600"
   inkscape:export-filename="card.png"
   inkscape:export-xdpi="192"
   inkscape:export-ydpi="192"
   xml:space="preserve"
   xmlns:inkscape="http://www.inkscape.org/namespaces/inkscape"
   xmlns:sodipodi="http://sodipodi.sourceforge.net/DTD/sodipodi-0.dtd"
   xmlns:xlink="http://www.w3.org/1999/xlink"
   xmlns="http://www.w3.org/2000/svg"
   xmlns:svg="http://www.w3.org/2000/svg"
   xmlns:rdf="http://www.w3.org/1999/02/22-rdf-syntax-ns#"
   xmlns:cc="http://creativecommons.org/ns#"
   xmlns:dc="http://purl.org/dc/elements/1.1/"><defs
     id="defs10442"><filter
       id="filter62647-5-1-29"
       inkscape:label="Better Shadow"
       style="color-interpolation-filters:sRGB"
       x="-0.14328897"
       y="-0.089033969"
       width="1.286578"
       height="1.3395338"><feFlood
         id="feFlood62637-04-2-75"
         result="flood"
         flood-color="rgb(0,0,0)"
         flood-opacity="0.180392" /><feComposite
         id="feComposite62639-87-2-64"
         result="composite1"
         operator="in"
         in2="SourceGraphic"
         in="flood" /><feGaussianBlur
         id="feGaussianBlur62641-1-7-63"
         result="blur"
         stdDeviation="7"
         in="composite1" /><feOffset
         id="feOffset62643-7-7-7"
         result="offset"
         dy="6"
         dx="0" /><feComposite
         id="feComposite62645-2-9-9"
         result="fbSourceGraphic"
         operator="over"
         in2="offset"
         in="SourceGraphic" /><feColorMatrix
         id="feColorMatrix62793-7-1-7"
         values="0 0 0 -1 0 0 0 0 -1 0 0 0 0 -1 0 0 0 0 1 0"
         in="fbSourceGraphic"
         result="fbSourceGraphicAlpha" /><feFlood
         in="fbSourceGraphic"
         result="flood"
         flood-color="rgb(0,0,0)"
         flood-opacity="0.34902"
         id="feFlood62795-2-4-49" /><feComposite
         result="composite1"
         operator="in"
         in="flood"
         id="feComposite62797-26-04-17"
         in2="fbSourceGraphic" /><feGaussianBlur
         result="blur"
         stdDeviation="3.5"
         in="composite1"
         id="feGaussianBlur62799-1-7-0" /><feOffset
         result="offset"
         dy="3"
         dx="0"
         id="feOffset62801-06-8-6" /><feComposite
         result="composite2"
         operator="over"
         in="fbSourceGraphic"
         id="feComposite62803-1-7-0"
         in2="offset" /></filter><linearGradient
       id="Gradient"
       x1="0"
       x2="0"
       y1="0"
       y2="256"
       gradientUnits="userSpaceOnUse"><stop
         offset="0%"
         style="stop-color:#C061CB;stop-opacity:1"
         id="stop1" /><stop
         offset="100%"
         style="stop-color:#FFBE6F;stop-opacity:1"
         id="stop2" /></linearGradient><filter
       id="alpha-to-white"
       x="0"
       y="0"
       width="1"
       height="1"><feColorMatrix
         in="SourceGraphic"
         type="matrix"
         values="0 0 0 1 0                              0 0 0 1 0                              0 0 0 1 0                              0 0 0 1 0"
         id="feColorMatrix2" /></filter><g
       id="child-svg"><svg
         width="16px"
         height="16px"
         viewBox="0 0 16 16"
         version="1.1"
         id="svg3"><g
           id="surface1075"><path
             style=" stroke:none;fill-rule:nonzero;fill:rgb(13.333334%,13.333334%,13.333334%);fill-opacity:1;"
             d="M 3 0.992188 C 1.355469 0.992188 0 2.347656 0 3.992188 L 0 7.992188 C 0 9.636719 1.355469 10.992188 3 10.992188 L 5 10.992188 L 5 8.992188 L 3 8.992188 C 2.429688 8.992188 2 8.5625 2 7.992188 L 2 3.992188 C 2 3.421875 2.429688 2.992188 3 2.992188 L 9 2.992188 C 9.570312 2.992188 10 3.421875 10 3.992188 L 10 5.992188 L 12 5.992188 L 12 3.992188 C 12 2.347656 10.644531 0.992188 9 0.992188 Z M 3 0.992188 "
             id="path2" /><path
             style=" stroke:none;fill-rule:nonzero;fill:rgb(13.333334%,13.333334%,13.333334%);fill-opacity:1;"
             d="M 7 4.992188 C 5.355469 4.992188 4 6.347656 4 7.992188 L 4 11.992188 C 4 13.636719 5.355469 14.992188 7 14.992188 L 13 14.992188 C 14.644531 14.992188 16 13.636719 16 11.992188 L 16 7.992188 C 16 6.347656 14.644531 4.992188 13 4.992188 Z M 7 6.992188 L 13 6.992188 C 13.570312 6.992188 14 7.421875 14 7.992188 L 14 11.992188 C 14 12.5625 13.570312 12.992188 13 12.992188 L 7 12.992188 C 6.429688 12.992188 6 12.5625 6 11.992188 L 6 7.992188 C 6 7.421875 6.429688 6.992188 7 6.992188 Z M 7 6.992188 "
             id="path3" /></g></svg></g><linearGradient
       id="Gradient-6"
       x1="0"
       x2="0"
       y1="0"
       y2="256"
       gradientUnits="userSpaceOnUse"><stop
         offset="0%"
         style="stop-color:#C061CB;stop-opacity:1"
         id="stop1-7" /><stop
         offset="100%"
         style="stop-color:#FFBE6F;stop-opacity:1"
         id="stop2-5" /></linearGradient><linearGradient
       inkscape:collect="always"
       xlink:href="#Gradient"
       id="linearGradient1"
       gradientUnits="userSpaceOnUse"
       x1="611.51129"
       y1="-596.2157"
       x2="611.51129"
       y2="-498.88724" /></defs><sodipodi:namedview
     inkscape:snap-bbox-midpoints="true"
     inkscape:snap-bbox-edge-midpoints="true"
     inkscape:bbox-nodes="true"
     inkscape:bbox-paths="true"
     inkscape:snap-bbox="true"
     inkscape:window-maximized="1"
     inkscape:window-y="0"
     inkscape:window-x="0"
     inkscape:window-height="1016"
     inkscape:window-width="1920"
     units="px"
     showgrid="false"
     inkscape:document-rotation="0"
     inkscape:current-layer="layer1"
     inkscape:document-units="px"
     inkscape:cy="153.7187"
     inkscape:cx="407.73045"
     inkscape:zoom="1"
     inkscape:pageshadow="2"
     inkscape:pageopacity="0.0"
     borderopacity="1.0"
     bordercolor="#666666"
     pagecolor="#ffffff"
     id="base"
     inkscape:snap-page="true"
     inkscape:snap-text-baseline="true"
     inkscape:snap-center="true"
     inkscape:snap-object-midpoints="true"
     inkscape:pagecheckerboard="1"
     inkscape:showpageshadow="0"
     inkscape:deskcolor="#d1d1d1"><inkscape:grid
       originy="1.2031857e-13"
       originx="0"
       id="grid11077"
       type="xygrid"
       spacingy="1"
       spacingx="1"
       units="px"
       visible="false" /></sodipodi:namedview><metadata
     id="metadata10445"><rdf:RDF><cc:Work
         rdf:about=""><dc:format>image/svg+xml</dc:format><dc:type
           rdf:resource="http://purl.org/dc/dcmitype/StillImage" /><dc:title /></cc:Work></rdf:RDF></metadata><g
     transform="translate(-459.7283,604.72058)"
     id="layer1"
     inkscape:groupmode="layer"
     inkscape:label="Layer 1"><rect
       y="-604.72058"
       x="459.7283"
       height="105.83334"
       width="158.75"
       id="rect965"
       style="fill:url(#linearGradient1);fill-opacity:1;stroke:none;stroke-width:0.01653646;stroke-linecap:butt;stroke-linejoin:miter;font-variation-settings:normal;opacity:1;vector-effect:none;stroke-miterlimit:4;stroke-dasharray:none;stroke-dashoffset:0;stroke-opacity:1;-inkscape-stroke:none;stop-color:#000000;stop-opacity:1"
       inkscape:export-xdpi="192"
       inkscape:export-ydpi="192" /><g
       id="g2"
       transform="translate(-2.3747599,0.54121606)"><path
         d="m 535.76073,-549.59576 v -5.11211 h 1.67813 l 0.0915,1.04711 q 0.21948,-0.599 0.61729,-0.85507 0.40239,-0.25606 0.86879,-0.25606 0.48469,0 0.80019,0.27893 0.31551,0.27892 0.52585,0.95566 0.24234,-0.67674 0.6996,-0.95566 0.46182,-0.27893 0.97395,-0.27893 0.73161,0 1.18886,0.47097 0.45726,0.47098 0.45726,1.25745 v 3.44771 h -1.83817 v -2.98131 q 0,-0.33379 -0.16918,-0.52127 -0.16919,-0.19204 -0.45268,-0.19204 -0.2835,0 -0.44811,0.19204 -0.16462,0.18748 -0.16462,0.52127 v 2.98131 h -1.75585 v -2.98131 q 0,-0.33379 -0.16919,-0.52127 -0.16918,-0.19204 -0.45268,-0.19204 -0.28807,0 -0.45268,0.19204 -0.16004,0.18748 -0.16004,0.52127 v 2.98131 z m 10.61746,0.064 q -0.53956,0 -0.94194,-0.24692 -0.40239,-0.24691 -0.62187,-0.68131 -0.21948,-0.43439 -0.21948,-0.99224 v -3.25565 h 1.83816 v 2.87156 q 0,0.37952 0.19205,0.599 0.19205,0.21491 0.53956,0.21491 0.33837,0 0.53956,-0.21491 0.20119,-0.21948 0.20119,-0.599 v -2.87156 h 1.83817 v 5.11211 h -1.72385 l -0.032,-1.15229 q -0.18748,0.52127 -0.57157,0.86879 -0.38409,0.34751 -1.03797,0.34751 z m 7.28864,-5.17612 v 1.33518 h -0.87793 v 2.13538 q 0,0.32008 0.34752,0.32008 0.0823,0 0.23777,-0.0183 0.16004,-0.0229 0.21034,-0.0412 l 0.21948,1.31232 q -0.31551,0.0869 -0.59443,0.11431 -0.27893,0.032 -0.52584,0.032 -1.733,0 -1.733,-1.55009 v -2.30457 h -0.6493 v -1.33518 h 0.6493 v -1.2163 h 1.83816 v 1.2163 z m 3.32882,0 v 1.33518 h -0.87793 v 2.13538 q 0,0.32008 0.34751,0.32008 0.0823,0 0.23778,-0.0183 0.16004,-0.0229 0.21033,-0.0412 l 0.21949,1.31232 q -0.31551,0.0869 -0.59444,0.11431 -0.27892,0.032 -0.52584,0.032 -1.73299,0 -1.73299,-1.55009 v -2.30457 h -0.64931 v -1.33518 h 0.64931 v -1.2163 h 1.83816 v 1.2163 z m 3.10933,5.20356 q -1.23001,0 -1.93419,-0.69503 -0.6996,-0.6996 -0.6996,-1.93876 0,-0.79105 0.31551,-1.38091 0.32008,-0.59443 0.90079,-0.92366 0.58072,-0.32922 1.37177,-0.32922 0.77276,0 1.34433,0.32008 0.57156,0.3155 0.8825,0.90536 0.3155,0.58529 0.3155,1.3992 v 0.42068 h -3.32881 q 0.0183,0.47554 0.25149,0.70417 0.23777,0.22863 0.61729,0.22863 0.2835,0 0.48469,-0.11432 0.2012,-0.11888 0.2835,-0.32922 l 1.61868,0.23777 q -0.19662,0.69046 -0.82306,1.09284 -0.62186,0.40239 -1.60039,0.40239 z m -0.81848,-3.22822 h 1.5821 q -0.0869,-0.7499 -0.79105,-0.7499 -0.70418,0 -0.79105,0.7499 z m 4.0467,3.13677 v -5.11211 h 1.7833 v 0.97852 h 0.0549 q 0.13717,-0.54413 0.43896,-0.79105 0.30636,-0.25149 0.71332,-0.25149 0.2332,0 0.4664,0.0732 v 1.56381 q -0.13718,-0.0503 -0.33837,-0.0686 -0.19662,-0.0229 -0.33837,-0.0229 -0.40696,0 -0.67674,0.26521 -0.2652,0.26521 -0.2652,0.70417 v 2.66123 z"
         id="text2096"
         style="font-weight:900;font-size:9.36458px;line-height:1.25;font-family:Inter;-inkscape-font-specification:'Inter, Heavy';text-align:center;letter-spacing:0px;word-spacing:0px;text-anchor:middle;fill:#ffffff;stroke-width:0.264583"
         aria-label="mutter" /><use
         xlink:href="#child-svg"
         filter="url(#alpha-to-white)"
         transform="matrix(0.96044341,0,0,0.96044341,516.16607,-560.02117)"
         id="use3"
         style="fill:#ffffff" /></g></g></svg>
