<?xml version="1.0" encoding="UTF-8" standalone="no"?>
<svg
   width="90"
   height="26"
   version="1.1"
   id="svg10"
   sodipodi:docname="page-logo-i.svg"
   inkscape:version="1.3.2 (091e20ef0f, 2023-11-25)"
   xmlns:inkscape="http://www.inkscape.org/namespaces/inkscape"
   xmlns:sodipodi="http://sodipodi.sourceforge.net/DTD/sodipodi-0.dtd"
   xmlns="http://www.w3.org/2000/svg"
   xmlns:svg="http://www.w3.org/2000/svg">
  <defs
     id="defs14">
    <filter
       id="alpha-to-white"
       x="0"
       y="0"
       width="1"
       height="1">
      <feColorMatrix
         in="SourceGraphic"
         type="matrix"
         values="0 0 0 1 0                              0 0 0 1 0                              0 0 0 1 0                              0 0 0 1 0"
         id="feColorMatrix2" />
    </filter>
  </defs>
  <sodipodi:namedview
     id="namedview12"
     pagecolor="#505050"
     bordercolor="#ffffff"
     borderopacity="1"
     inkscape:pageshadow="0"
     inkscape:pageopacity="0"
     inkscape:pagecheckerboard="1"
     showgrid="true"
     width="137px"
     inkscape:current-layer="svg10"
     showguides="true"
     inkscape:guide-bbox="true"
     inkscape:showpageshadow="0"
     inkscape:deskcolor="#d1d1d1">
    <inkscape:grid
       type="xygrid"
       id="grid5602"
       originx="0"
       originy="0"
       spacingy="1"
       spacingx="1"
       units="px"
       visible="true" />
    <sodipodi:guide
       position="60,11"
       orientation="0,-1"
       id="guide140"
       inkscape:locked="false" />
  </sodipodi:namedview>
  <g
     id="g2"
     transform="matrix(1.5779351,0,0,1.5779351,-809.41726,884.17338)">
    <path
       d="m 535.76073,-549.59576 v -5.11211 h 1.67813 l 0.0915,1.04711 q 0.21948,-0.599 0.61729,-0.85507 0.40239,-0.25606 0.86879,-0.25606 0.48469,0 0.80019,0.27893 0.31551,0.27892 0.52585,0.95566 0.24234,-0.67674 0.6996,-0.95566 0.46182,-0.27893 0.97395,-0.27893 0.73161,0 1.18886,0.47097 0.45726,0.47098 0.45726,1.25745 v 3.44771 h -1.83817 v -2.98131 q 0,-0.33379 -0.16918,-0.52127 -0.16919,-0.19204 -0.45268,-0.19204 -0.2835,0 -0.44811,0.19204 -0.16462,0.18748 -0.16462,0.52127 v 2.98131 h -1.75585 v -2.98131 q 0,-0.33379 -0.16919,-0.52127 -0.16918,-0.19204 -0.45268,-0.19204 -0.28807,0 -0.45268,0.19204 -0.16004,0.18748 -0.16004,0.52127 v 2.98131 z m 10.61746,0.064 q -0.53956,0 -0.94194,-0.24692 -0.40239,-0.24691 -0.62187,-0.68131 -0.21948,-0.43439 -0.21948,-0.99224 v -3.25565 h 1.83816 v 2.87156 q 0,0.37952 0.19205,0.599 0.19205,0.21491 0.53956,0.21491 0.33837,0 0.53956,-0.21491 0.20119,-0.21948 0.20119,-0.599 v -2.87156 h 1.83817 v 5.11211 h -1.72385 l -0.032,-1.15229 q -0.18748,0.52127 -0.57157,0.86879 -0.38409,0.34751 -1.03797,0.34751 z m 7.28864,-5.17612 v 1.33518 h -0.87793 v 2.13538 q 0,0.32008 0.34752,0.32008 0.0823,0 0.23777,-0.0183 0.16004,-0.0229 0.21034,-0.0412 l 0.21948,1.31232 q -0.31551,0.0869 -0.59443,0.11431 -0.27893,0.032 -0.52584,0.032 -1.733,0 -1.733,-1.55009 v -2.30457 h -0.6493 v -1.33518 h 0.6493 v -1.2163 h 1.83816 v 1.2163 z m 3.32882,0 v 1.33518 h -0.87793 v 2.13538 q 0,0.32008 0.34751,0.32008 0.0823,0 0.23778,-0.0183 0.16004,-0.0229 0.21033,-0.0412 l 0.21949,1.31232 q -0.31551,0.0869 -0.59444,0.11431 -0.27892,0.032 -0.52584,0.032 -1.73299,0 -1.73299,-1.55009 v -2.30457 h -0.64931 v -1.33518 h 0.64931 v -1.2163 h 1.83816 v 1.2163 z m 3.10933,5.20356 q -1.23001,0 -1.93419,-0.69503 -0.6996,-0.6996 -0.6996,-1.93876 0,-0.79105 0.31551,-1.38091 0.32008,-0.59443 0.90079,-0.92366 0.58072,-0.32922 1.37177,-0.32922 0.77276,0 1.34433,0.32008 0.57156,0.3155 0.8825,0.90536 0.3155,0.58529 0.3155,1.3992 v 0.42068 h -3.32881 q 0.0183,0.47554 0.25149,0.70417 0.23777,0.22863 0.61729,0.22863 0.2835,0 0.48469,-0.11432 0.2012,-0.11888 0.2835,-0.32922 l 1.61868,0.23777 q -0.19662,0.69046 -0.82306,1.09284 -0.62186,0.40239 -1.60039,0.40239 z m -0.81848,-3.22822 h 1.5821 q -0.0869,-0.7499 -0.79105,-0.7499 -0.70418,0 -0.79105,0.7499 z m 4.0467,3.13677 v -5.11211 h 1.7833 v 0.97852 h 0.0549 q 0.13717,-0.54413 0.43896,-0.79105 0.30636,-0.25149 0.71332,-0.25149 0.2332,0 0.4664,0.0732 v 1.56381 q -0.13718,-0.0503 -0.33837,-0.0686 -0.19662,-0.0229 -0.33837,-0.0229 -0.40696,0 -0.67674,0.26521 -0.2652,0.26521 -0.2652,0.70417 v 2.66123 z"
       id="text2096"
       style="font-weight:900;font-size:9.36458px;line-height:1.25;font-family:Inter;-inkscape-font-specification:'Inter, Heavy';text-align:center;letter-spacing:0px;word-spacing:0px;text-anchor:middle;fill:#ffffff;stroke-width:0.264583"
       aria-label="mutter" />
    <g
       id="use3"
       style="fill:#ffffff;filter:url(#alpha-to-white)"
       transform="matrix(0.96044341,0,0,0.96044341,516.16607,-560.02117)">
      <svg
         width="16"
         height="16"
         viewBox="0 0 16 16"
         version="1.1"
         id="svg4">
        <g
           id="g4" />
      </svg>
    </g>
  </g>
  <rect
     style="fill:none;stroke:#ffffff;stroke-width:3;stroke-dasharray:none;stroke-opacity:1;paint-order:markers stroke fill"
     id="rect1"
     width="14"
     height="11"
     x="12.5"
     y="9.5"
     rx="3"
     ry="3" />
  <path
     id="rect2"
     style="fill:none;stroke:#ffffff;stroke-width:3;stroke-dasharray:none;paint-order:markers stroke fill"
     d="m 12.5,14.5 h -3 c -1.662,0 -3,-1.338 -3,-3 v -5 c 0,-1.662 1.338,-3 3,-3 h 8 c 1.662,0 3,1.338 3,3 v 2"
     sodipodi:nodetypes="cssssc" />
</svg>
