<?xml version="1.0" encoding="UTF-8" standalone="no"?>
<svg
   width="256"
   height="256"
   version="1.1"
   id="svg4"
   sodipodi:docname="mutter.svg"
   inkscape:version="1.3.2 (091e20ef0f, 2023-11-25)"
   xmlns:inkscape="http://www.inkscape.org/namespaces/inkscape"
   xmlns:sodipodi="http://sodipodi.sourceforge.net/DTD/sodipodi-0.dtd"
   xmlns:xlink="http://www.w3.org/1999/xlink"
   xmlns="http://www.w3.org/2000/svg"
   xmlns:svg="http://www.w3.org/2000/svg">
  <sodipodi:namedview
     id="namedview4"
     pagecolor="#505050"
     bordercolor="#ffffff"
     borderopacity="1"
     inkscape:showpageshadow="0"
     inkscape:pageopacity="0"
     inkscape:pagecheckerboard="1"
     inkscape:deskcolor="#d1d1d1"
     inkscape:current-layer="svg4" />
  <defs
     id="defs3">
    <linearGradient
       id="Gradient"
       x1="0"
       x2="0"
       y1="0"
       y2="1">
      <stop
         offset="0%"
         style="stop-color:#C061CB;stop-opacity:1"
         id="stop1" />
      <stop
         offset="100%"
         style="stop-color:#ffa348;stop-opacity:1"
         id="stop2" />
    </linearGradient>
    <filter
       id="alpha-to-white"
       x="0"
       y="0"
       width="1"
       height="1">
      <feColorMatrix
         in="SourceGraphic"
         type="matrix"
         values="0 0 0 1 0                              0 0 0 1 0                              0 0 0 1 0                              0 0 0 1 0"
         id="feColorMatrix2" />
    </filter>
    <g
       id="child-svg">
      <svg
         width="16px"
         height="16px"
         viewBox="0 0 16 16"
         version="1.1"
         id="svg3">
        <g
           id="surface1075">
          <path
             style=" stroke:none;fill-rule:nonzero;fill:rgb(13.333334%,13.333334%,13.333334%);fill-opacity:1;"
             d="M 3 0.992188 C 1.355469 0.992188 0 2.347656 0 3.992188 L 0 7.992188 C 0 9.636719 1.355469 10.992188 3 10.992188 L 5 10.992188 L 5 8.992188 L 3 8.992188 C 2.429688 8.992188 2 8.5625 2 7.992188 L 2 3.992188 C 2 3.421875 2.429688 2.992188 3 2.992188 L 9 2.992188 C 9.570312 2.992188 10 3.421875 10 3.992188 L 10 5.992188 L 12 5.992188 L 12 3.992188 C 12 2.347656 10.644531 0.992188 9 0.992188 Z M 3 0.992188 "
             id="path2" />
          <path
             style=" stroke:none;fill-rule:nonzero;fill:rgb(13.333334%,13.333334%,13.333334%);fill-opacity:1;"
             d="M 7 4.992188 C 5.355469 4.992188 4 6.347656 4 7.992188 L 4 11.992188 C 4 13.636719 5.355469 14.992188 7 14.992188 L 13 14.992188 C 14.644531 14.992188 16 13.636719 16 11.992188 L 16 7.992188 C 16 6.347656 14.644531 4.992188 13 4.992188 Z M 7 6.992188 L 13 6.992188 C 13.570312 6.992188 14 7.421875 14 7.992188 L 14 11.992188 C 14 12.5625 13.570312 12.992188 13 12.992188 L 7 12.992188 C 6.429688 12.992188 6 12.5625 6 11.992188 L 6 7.992188 C 6 7.421875 6.429688 6.992188 7 6.992188 Z M 7 6.992188 "
             id="path3" />
        </g>
      </svg>
    </g>
  </defs>
  <rect
     width="256"
     height="256"
     fill="url(#Gradient)"
     ry="0"
     x="0"
     y="0"
     id="rect3" />
  <use
     xlink:href="#child-svg"
     filter="url(#alpha-to-white)"
     transform="matrix(8,0,0,8,64,64)"
     id="use3" />
</svg>
