<?xml version="1.0" encoding="UTF-8"?>
<svg height="128px" viewBox="0 0 128 128" width="128px" xmlns="http://www.w3.org/2000/svg" xmlns:xlink="http://www.w3.org/1999/xlink">
    <linearGradient id="a" gradientUnits="userSpaceOnUse" x1="44" x2="120.125" y1="118" y2="118">
        <stop offset="0" stop-color="#813d9c"/>
        <stop offset="0.0623974" stop-color="#c68ce0"/>
        <stop offset="0.146141" stop-color="#813d9c"/>
        <stop offset="0.881773" stop-color="#813d9c"/>
        <stop offset="0.945813" stop-color="#b465d6"/>
        <stop offset="1" stop-color="#813d9c"/>
    </linearGradient>
    <linearGradient id="b" gradientUnits="userSpaceOnUse" x1="12" x2="95.953766" y1="106" y2="106">
        <stop offset="0" stop-color="#c64600"/>
        <stop offset="0.0714679" stop-color="#e66100"/>
        <stop offset="0.139958" stop-color="#c64600"/>
        <stop offset="0.869526" stop-color="#c64600"/>
        <stop offset="0.94695" stop-color="#ff6529"/>
        <stop offset="1" stop-color="#9e3600"/>
    </linearGradient>
    <path d="m 51.808594 60.03125 h 60.171875 c 4.417969 0 8 3.578125 8 8 v 43.886719 c 0 4.417969 -3.582031 8 -8 8 h -60.171875 c -4.421875 0 -8 -3.582031 -8 -8 v -43.886719 c 0 -4.421875 3.578125 -8 8 -8 z m 0 0" fill="url(#a)"/>
    <path d="m 51.808594 58.03125 h 60.171875 c 4.417969 0 8 3.578125 8 8 v 43.886719 c 0 4.417969 -3.582031 8 -8 8 h -60.171875 c -4.421875 0 -8 -3.582031 -8 -8 v -43.886719 c 0 -4.421875 3.578125 -8 8 -8 z m 0 0" fill="#c061cb"/>
    <path d="m 19.988281 16 h 67.964844 c 4.417969 0 8 3.582031 8 8 v 74.125 c 0 4.417969 -3.582031 8 -8 8 h -67.964844 c -4.417969 0 -8 -3.582031 -8 -8 v -74.125 c 0 -4.417969 3.582031 -8 8 -8 z m 0 0" fill="url(#b)"/>
    <path d="m 20 12 h 67.953125 c 4.417969 0 8 3.582031 8 8 v 76.058594 c 0 4.417968 -3.582031 8 -8 8 h -67.953125 c -4.417969 0 -8 -3.582032 -8 -8 v -76.058594 c 0 -4.417969 3.582031 -8 8 -8 z m 0 0" fill="#ff7800"/>
    <path d="m 109.117188 61.378906 c -3.871094 0 -7 3.128906 -7 7 s 3.128906 7 7 7 c 3.871093 0 7 -3.128906 7 -7 s -3.128907 -7 -7 -7 z m -2 4 c 0.265624 0 0.519531 0.105469 0.707031 0.292969 l 1.292969 1.292969 l 1.292968 -1.292969 c 0.1875 -0.1875 0.441406 -0.292969 0.707032 -0.292969 c 0.265624 0 0.519531 0.105469 0.707031 0.292969 c 0.390625 0.390625 0.390625 1.023437 0 1.414063 l -1.292969 1.292968 l 1.292969 1.292969 c 0.390625 0.390625 0.390625 1.023437 0 1.414063 c -0.390625 0.390624 -1.023438 0.390624 -1.414063 0 l -1.292968 -1.292969 l -1.292969 1.292969 c -0.390625 0.390624 -1.023438 0.390624 -1.414063 0 c -0.390625 -0.390626 -0.390625 -1.023438 0 -1.414063 l 1.292969 -1.292969 l -1.292969 -1.292968 c -0.390625 -0.390626 -0.390625 -1.023438 0 -1.414063 c 0.1875 -0.1875 0.441406 -0.292969 0.707032 -0.292969 z m 0 0" fill="#813d9c"/>
    <g fill="#c64600">
        <path d="m 43.972656 45.0625 c -3.289062 0 -6 2.710938 -6 6 v 8 c 0 3.289062 2.710938 6 6 6 h 4 v -4 h -4 c -1.140625 0 -2 -0.859375 -2 -2 v -8 c 0 -1.140625 0.859375 -2 2 -2 h 12 c 1.140625 0 2 0.859375 2 2 v 4 h 4 v -4 c 0 -3.289062 -2.710937 -6 -6 -6 z m 0 0"/>
        <path d="m 51.972656 53.0625 c -3.289062 0 -6 2.710938 -6 6 v 8 c 0 3.289062 2.710938 6 6 6 h 12 c 3.289063 0 6 -2.710938 6 -6 v -8 c 0 -3.289062 -2.710937 -6 -6 -6 z m 0 4 h 12 c 1.140625 0 2 0.859375 2 2 v 8 c 0 1.140625 -0.859375 2 -2 2 h -12 c -1.140625 0 -2 -0.859375 -2 -2 v -8 c 0 -1.140625 0.859375 -2 2 -2 z m 0 0"/>
        <path d="m 85.65625 16 c -3.871094 0 -7 3.128906 -7 7 s 3.128906 7 7 7 s 7 -3.128906 7 -7 s -3.128906 -7 -7 -7 z m -2 4 c 0.265625 0 0.519531 0.105469 0.707031 0.292969 l 1.292969 1.292969 l 1.292969 -1.292969 c 0.1875 -0.1875 0.441406 -0.292969 0.707031 -0.292969 s 0.519531 0.105469 0.707031 0.292969 c 0.390625 0.390625 0.390625 1.023437 0 1.414062 l -1.292969 1.292969 l 1.292969 1.292969 c 0.390625 0.390625 0.390625 1.023437 0 1.414062 s -1.023437 0.390625 -1.414062 0 l -1.292969 -1.292969 l -1.292969 1.292969 c -0.390625 0.390625 -1.023437 0.390625 -1.414062 0 s -0.390625 -1.023437 0 -1.414062 l 1.292969 -1.292969 l -1.292969 -1.292969 c -0.390625 -0.390625 -0.390625 -1.023437 0 -1.414062 c 0.1875 -0.1875 0.441406 -0.292969 0.707031 -0.292969 z m 0 0"/>
    </g>
</svg>
